# xmcd
#
# Track frame offsets:
#	150
#	13888
#	30468
#	45133
#	58118
#	73063
#	88070
#	99193
#	116500
#	129735
#	144755
#	160608
#
# Disc length: 2399 seconds
#
# Revision: 1
# Processed by: cddbd v1.5.2PL0 Copyright (c) Steve Scherf et al.
# Submitted via: audiograbber 1.83.01
#
DISCID=92095d0c
DTITLE=Stella - Zingt levensliedjes
DYEAR=1900
DGENRE=
TTITLE0=Stella - Iedereen kan eenzaam worden
TTITLE1=Stella - Ik heb jou teveel vertrouwd
TTITLE2=Stella - Nooit meer geluk
TTITLE3=Stella - Al is het doek gevallen
TTITLE4=Stella - Mooie uren tellen dubbel
TTITLE5=Stella - Pak je jas
TTITLE6=Stella - Denk maar niet
TTITLE7=Stella - Buiten bloeien de violen
TTITLE8=Stella - Met open ogen
TTITLE9=Stella - 'n Moeder maakt zich altijd zorgen
TTITLE10=Stella - De nacht van m'n leven
TTITLE11=Stella - Nog eenmaal wil ik zingen
EXTD=
EXTT0=
EXTT1=
EXTT2=
EXTT3=
EXTT4=
EXTT5=
EXTT6=
EXTT7=
EXTT8=
EXTT9=
EXTT10=
EXTT11=
PLAYORDER=
